<svg width="24" height="24" viewBox="0 0 24 24" fill="none" xmlns="http://www.w3.org/2000/svg">
<circle cx="10.5" cy="5.50006" r="3.5" fill="#232C40"/>
<path d="M3 18.2581C3 14.2496 6.24955 11.0001 10.2581 11.0001H11.7419C15.7505 11.0001 19 14.2496 19 18.2581C19 19.2202 18.2201 20.0001 17.2581 20.0001H4.74194C3.77989 20.0001 3 19.2202 3 18.2581Z" fill="#232C40"/>
<path d="M17.75 14.2991C18.1642 13.5817 19.0816 13.3358 19.799 13.7501C20.5165 14.1643 20.7623 15.0817 20.3481 15.7991L19.5981 17.0981L17.9314 19.9849C17.715 20.3597 17.383 20.6541 16.985 20.8241L15.4217 21.4919C15.3603 21.5181 15.2911 21.4781 15.2831 21.4119L15.0797 19.7241C15.028 19.2945 15.117 18.8597 15.3333 18.4849L17 15.5981L17.75 14.2991Z" fill="white"/>
<path d="M17 15.5981L15.3333 18.4849C15.117 18.8597 15.028 19.2945 15.0797 19.7241L15.2831 21.4119C15.2911 21.4781 15.3603 21.5181 15.4217 21.4919L16.985 20.8241C17.383 20.6541 17.715 20.3597 17.9314 19.9849L19.5981 17.0981M17 15.5981L17.75 14.2991C18.1642 13.5817 19.0816 13.3358 19.799 13.7501V13.7501C20.5165 14.1643 20.7623 15.0817 20.3481 15.7991L19.5981 17.0981M17 15.5981L19.5981 17.0981" stroke="#232C40" stroke-width="1.5"/>
</svg>
