<?xml version="1.0" encoding="iso-8859-1"?>
<!-- Generator: Adobe Illustrator 18.0.0, SVG Export Plug-In . SVG Version: 6.00 Build 0)  -->
<!DOCTYPE svg PUBLIC "-//W3C//DTD SVG 1.1//EN" "http://www.w3.org/Graphics/SVG/1.1/DTD/svg11.dtd">
<svg version="1.1" id="Capa_1" xmlns="http://www.w3.org/2000/svg" xmlns:xlink="http://www.w3.org/1999/xlink" x="0px" y="0px"
	 viewBox="0 0 512 512" style="enable-background:new 0 0 512 512;" xml:space="preserve">
<g>
	<polygon points="224,128 224,256 336,192 	"/>
	<path d="M480,0H32C14.328,0,0,14.328,0,32v448c0,17.672,14.328,32,32,32h448c17.672,0,32-14.328,32-32V32
		C512,14.328,497.672,0,480,0z M432,432h-64v16c0,8.836-7.156,16-16,16c-8.844,0-16-7.164-16-16v-16H80c-8.844,0-16-7.164-16-16
		s7.156-16,16-16h256v-16c0-8.836,7.156-16,16-16c8.844,0,16,7.164,16,16v16h64c8.844,0,16,7.164,16,16S440.844,432,432,432z
		 M448,320H64V64h384V320z"/>
</g>
<g>
</g>
<g>
</g>
<g>
</g>
<g>
</g>
<g>
</g>
<g>
</g>
<g>
</g>
<g>
</g>
<g>
</g>
<g>
</g>
<g>
</g>
<g>
</g>
<g>
</g>
<g>
</g>
<g>
</g>
</svg>
